<!--?xml version="1.0" standalone="no"?-->
              <svg id="sw-js-blob-svg" viewBox="0 0 100 100" xmlns="http://www.w3.org/2000/svg" version="1.1">
                    <defs> 
                        <linearGradient id="sw-gradient" x1="0" x2="1" y1="1" y2="0">
                            <stop id="stop1" stop-color="rgba(0, 0, 0, 0.65)" offset="0%"></stop>
                            <stop id="stop2" stop-color="rgba(159.745, 158.384, 156.137, 1)" offset="100%"></stop>
                        </linearGradient>
                    </defs>
                <path fill="url(#sw-gradient)" d="M24.4,-29.1C30.7,-23.7,34.5,-15.2,36.3,-6.2C38.1,2.8,37.9,12.3,33.6,18.9C29.2,25.6,20.6,29.4,11.8,33C2.9,36.5,-6.4,39.7,-12.9,36.8C-19.5,33.9,-23.3,24.8,-26.1,16.6C-28.8,8.5,-30.6,1.4,-29.4,-5.1C-28.2,-11.7,-24.1,-17.7,-18.7,-23.3C-13.3,-28.9,-6.6,-34.1,1.2,-35.5C9,-36.8,18,-34.5,24.4,-29.1Z" width="100%" height="100%" transform="translate(50 50)" stroke-width="0" style="transition: all 0.3s ease 0s;" stroke="url(#sw-gradient)"></path>
              </svg>